<svg xmlns="http://www.w3.org/2000/svg" xmlns:xlink="http://www.w3.org/1999/xlink" version="1.1" x="0px" y="0px" width="100px" height="100px" viewBox="0 0 100 100" enable-background="new 0 0 100 100" xml:space="preserve">
<path data-id="head" class="head" d="M58.879,3.58V3.392h0.922V1.743h-2.035c-0.603-0.754-1.805-1.273-3.199-1.273c-1.396,0-2.6,0.519-3.201,1.273h-2.076v1.649  h0.922v0.504l-3.897,11.669l4.653-1.309l0.168-1.542c0.299,0.188,0.647,0.304,1.024,0.308l2.312,0.422l2.459-0.422  c0.372-0.004,0.717-0.117,1.013-0.301l0.162,1.526l4.71,1.341L58.879,3.58z M49.741,2.94V2.194h9.608V2.94H49.741z M58.43,11.052  c0,0.836-0.682,1.518-1.519,1.518l-2.438,0.416l-2.252-0.412L52.18,12.57c-0.838,0-1.518-0.682-1.518-1.518V3.404h7.768V11.052z"/>
<path data-id="torso" class="torso" d="M41.817,17.79l10.292-2.92l2.265,1.198h0.36l2.264-1.198l10.291,2.92l2.701,22.373l-9.449,9.45c0,0-1.242-2.425-3.604-3.671  l3.753-3.694l-0.663-0.665l-4.715,4.725c0,0,0.567,0.166,0.883,0.302l-1.577,1.523c0,0-0.164,0.16-0.164,0.277  c0,0,0.008-0.055-0.177-0.269s-1.517-1.5-1.517-1.5s0.508-0.345,1.07-0.326l-4.744-4.725l-0.645,0.629l3.676,3.681  c0,0-2.55,0.753-3.661,3.602l-9.339-9.339L41.817,17.79z"/>
<path data-id="legs" class="legs" d="M64.844,46.625l-4.533,4.492c-0.149-0.496-0.494-0.943-0.531-0.99c-0.049,0.086-0.092,0.175-0.165,0.248l-2.052,2.052  c-0.432,0.432-1.131,0.432-1.562,0l-1.562-1.562l-1.562,1.562c-0.432,0.432-1.131,0.432-1.562,0l-2.052-2.052  c-0.041-0.041-0.059-0.093-0.092-0.138c-0.108,0.444-0.207,1.048-0.207,1.048l-4.681-4.66l-5.438,53.141h31.39L64.844,46.625z"/>
</svg>