<?xml version="1.0" encoding="utf-8"?>
<!-- Generator: Adobe Illustrator 15.1.0, SVG Export Plug-In . SVG Version: 6.00 Build 0)  -->
<!DOCTYPE svg PUBLIC "-//W3C//DTD SVG 1.1//EN" "http://www.w3.org/Graphics/SVG/1.1/DTD/svg11.dtd">
<svg version="1.1" id="Layer_1" xmlns="http://www.w3.org/2000/svg" xmlns:xlink="http://www.w3.org/1999/xlink" x="0px" y="0px"
	 width="100px" height="100px" viewBox="0 0 100 100" enable-background="new 0 0 100 100" xml:space="preserve">
<path data-id="head" class="head"
	d="M49.743,20.66v0.021c0.071,0,0.14-0.009,0.21-0.01c0.071,0.001,0.139,0.01,0.21,0.01V20.66
	c4.263-0.22,7.651-3.736,7.651-8.048c0-4.313-3.389-7.823-7.651-8.042V4.549c-0.071,0-0.14,0.009-0.21,0.011
	c-0.07-0.001-0.139-0.011-0.21-0.011V4.57c-4.263,0.219-7.651,3.729-7.651,8.042C42.092,16.924,45.479,20.44,49.743,20.66z"/>
<path data-id="torso" class='torso'
	d="M69.893,52.938L59.42,24.333c-0.096-0.268-0.236-0.502-0.393-0.723c-0.005-0.006-0.01-0.012-0.014-0.018
	c-0.062-0.085-0.117-0.174-0.186-0.253h-0.033c-0.334-0.376-0.748-0.646-1.217-0.765l0.012-0.071h-0.184h-0.371h-0.184H43.147
	h-0.184h-0.372h-0.184l0.013,0.071c-0.469,0.119-0.883,0.389-1.218,0.765H41.17c-0.068,0.079-0.124,0.168-0.185,0.253
	c-0.004,0.005-0.008,0.011-0.013,0.018c-0.156,0.22-0.297,0.456-0.393,0.723L30.107,52.938c-0.589,1.638,0.26,3.443,1.896,4.034
	c1.638,0.589,3.443-0.26,4.033-1.898l6.58-16.939l-1.053,16.031h16.873l-1.053-16.031l6.58,16.939
	c0.59,1.638,2.396,2.486,4.033,1.897C69.633,56.382,70.482,54.577,69.893,52.938z"/>
<path data-id="legs" class='legs' 
	d="M58.582,56.402l-0.146-2.236H41.562l-0.146,2.236l-5.982,34.511c-0.471,2.115-0.025,4.122,2.733,4.483
	s5.378-1.062,5.848-3.178L50,62.299l5.984,29.92c0.469,2.115,3.088,3.539,5.848,3.178c2.759-0.361,3.204-2.367,2.733-4.483
	L58.582,56.402z"/>
</svg>
